<svg width="221" height="183" viewBox="0 0 221 183" fill="none" xmlns="http://www.w3.org/2000/svg">
<g clip-path="url(#clip0_9_84)">
<path d="M107 -17.4C64.9916 -17.4 30.9556 16.636 30.9556 58.6444C30.9556 100.653 64.9916 134.689 107 134.689C149.008 134.689 183.044 100.653 183.044 58.6444C183.044 16.636 149.008 -17.4 107 -17.4ZM131.53 34.114C136.958 34.114 141.343 38.4988 141.343 43.9262C141.343 49.3535 136.958 53.7384 131.53 53.7384C126.103 53.7384 121.718 49.3535 121.718 43.9262C121.718 38.4988 126.103 34.114 131.53 34.114ZM77.5634 107.705C69.4377 107.705 62.8452 101.266 62.8452 93.2937C62.8452 87.1611 71.5842 74.7732 75.601 69.4379C76.5822 68.1193 78.5447 68.1193 79.5259 69.4379C83.5428 74.7732 92.2817 87.1611 92.2817 93.2937C92.2817 101.266 85.6892 107.705 77.5634 107.705ZM82.4695 53.7384C77.0422 53.7384 72.6574 49.3535 72.6574 43.9262C72.6574 38.4988 77.0422 34.114 82.4695 34.114C87.8969 34.114 92.2817 38.4988 92.2817 43.9262C92.2817 49.3535 87.8969 53.7384 82.4695 53.7384ZM134.658 101.021C127.79 92.8031 117.701 88.081 107 88.081C100.499 88.081 100.499 78.2688 107 78.2688C120.614 78.2688 133.462 84.2788 142.171 94.7656C146.402 99.7943 138.736 105.958 134.658 101.021Z" fill="#CBC9CF" fill-opacity="0.3"/>
</g>
<path d="M13.693 154H10.893L4.55305 144.42V154H1.75305V140.02H4.55305L10.893 149.62V140.02H13.693V154ZM21.3801 154.18C20.3134 154.18 19.3534 153.947 18.5001 153.48C17.6467 153 16.9734 152.327 16.4801 151.46C16.0001 150.593 15.7601 149.593 15.7601 148.46C15.7601 147.327 16.0067 146.327 16.5001 145.46C17.0067 144.593 17.6934 143.927 18.5601 143.46C19.4267 142.98 20.3934 142.74 21.4601 142.74C22.5267 142.74 23.4934 142.98 24.3601 143.46C25.2267 143.927 25.9067 144.593 26.4001 145.46C26.9067 146.327 27.1601 147.327 27.1601 148.46C27.1601 149.593 26.9001 150.593 26.3801 151.46C25.8734 152.327 25.1801 153 24.3001 153.48C23.4334 153.947 22.4601 154.18 21.3801 154.18ZM21.3801 151.74C21.8867 151.74 22.3601 151.62 22.8001 151.38C23.2534 151.127 23.6134 150.753 23.8801 150.26C24.1467 149.767 24.2801 149.167 24.2801 148.46C24.2801 147.407 24.0001 146.6 23.4401 146.04C22.8934 145.467 22.2201 145.18 21.4201 145.18C20.6201 145.18 19.9467 145.467 19.4001 146.04C18.8667 146.6 18.6001 147.407 18.6001 148.46C18.6001 149.513 18.8601 150.327 19.3801 150.9C19.9134 151.46 20.5801 151.74 21.3801 151.74ZM49.1996 140.04V154H46.3996V144.92L42.6596 154H40.5396L36.7796 144.92V154H33.9796V140.04H37.1596L41.5996 150.42L46.0396 140.04H49.1996ZM51.2479 148.42C51.2479 147.3 51.4679 146.307 51.9079 145.44C52.3612 144.573 52.9679 143.907 53.7279 143.44C54.5012 142.973 55.3612 142.74 56.3079 142.74C57.1346 142.74 57.8546 142.907 58.4679 143.24C59.0946 143.573 59.5946 143.993 59.9679 144.5V142.92H62.7879V154H59.9679V152.38C59.6079 152.9 59.1079 153.333 58.4679 153.68C57.8412 154.013 57.1146 154.18 56.2879 154.18C55.3546 154.18 54.5012 153.94 53.7279 153.46C52.9679 152.98 52.3612 152.307 51.9079 151.44C51.4679 150.56 51.2479 149.553 51.2479 148.42ZM59.9679 148.46C59.9679 147.78 59.8346 147.2 59.5679 146.72C59.3012 146.227 58.9412 145.853 58.4879 145.6C58.0346 145.333 57.5479 145.2 57.0279 145.2C56.5079 145.2 56.0279 145.327 55.5879 145.58C55.1479 145.833 54.7879 146.207 54.5079 146.7C54.2412 147.18 54.1079 147.753 54.1079 148.42C54.1079 149.087 54.2412 149.673 54.5079 150.18C54.7879 150.673 55.1479 151.053 55.5879 151.32C56.0412 151.587 56.5212 151.72 57.0279 151.72C57.5479 151.72 58.0346 151.593 58.4879 151.34C58.9412 151.073 59.3012 150.7 59.5679 150.22C59.8346 149.727 59.9679 149.14 59.9679 148.46ZM71.6626 142.76C72.9826 142.76 74.0492 143.18 74.8626 144.02C75.6759 144.847 76.0826 146.007 76.0826 147.5V154H73.2826V147.88C73.2826 147 73.0626 146.327 72.6226 145.86C72.1826 145.38 71.5826 145.14 70.8226 145.14C70.0492 145.14 69.4359 145.38 68.9826 145.86C68.5426 146.327 68.3226 147 68.3226 147.88V154H65.5226V142.92H68.3226V144.3C68.6959 143.82 69.1692 143.447 69.7426 143.18C70.3292 142.9 70.9692 142.76 71.6626 142.76ZM94.1052 142.92L90.8652 154H87.8452L85.8252 146.26L83.8052 154H80.7652L77.5052 142.92H80.3452L82.3052 151.36L84.4252 142.92H87.3852L89.4652 151.34L91.4252 142.92H94.1052ZM101.86 142.76C102.7 142.76 103.447 142.947 104.1 143.32C104.754 143.68 105.26 144.22 105.62 144.94C105.994 145.647 106.18 146.5 106.18 147.5V154H103.38V147.88C103.38 147 103.16 146.327 102.72 145.86C102.28 145.38 101.68 145.14 100.92 145.14C100.147 145.14 99.5336 145.38 99.0802 145.86C98.6402 146.327 98.4202 147 98.4202 147.88V154H95.6202V139.2H98.4202V144.3C98.7802 143.82 99.2602 143.447 99.8602 143.18C100.46 142.9 101.127 142.76 101.86 142.76ZM108.123 148.42C108.123 147.3 108.343 146.307 108.783 145.44C109.236 144.573 109.843 143.907 110.603 143.44C111.376 142.973 112.236 142.74 113.183 142.74C114.01 142.74 114.73 142.907 115.343 143.24C115.97 143.573 116.47 143.993 116.843 144.5V142.92H119.663V154H116.843V152.38C116.483 152.9 115.983 153.333 115.343 153.68C114.716 154.013 113.99 154.18 113.163 154.18C112.23 154.18 111.376 153.94 110.603 153.46C109.843 152.98 109.236 152.307 108.783 151.44C108.343 150.56 108.123 149.553 108.123 148.42ZM116.843 148.46C116.843 147.78 116.71 147.2 116.443 146.72C116.176 146.227 115.816 145.853 115.363 145.6C114.91 145.333 114.423 145.2 113.903 145.2C113.383 145.2 112.903 145.327 112.463 145.58C112.023 145.833 111.663 146.207 111.383 146.7C111.116 147.18 110.983 147.753 110.983 148.42C110.983 149.087 111.116 149.673 111.383 150.18C111.663 150.673 112.023 151.053 112.463 151.32C112.916 151.587 113.396 151.72 113.903 151.72C114.423 151.72 114.91 151.593 115.363 151.34C115.816 151.073 116.176 150.7 116.443 150.22C116.71 149.727 116.843 149.14 116.843 148.46ZM128.583 141.6C128.09 141.6 127.677 141.447 127.343 141.14C127.023 140.82 126.863 140.427 126.863 139.96C126.863 139.493 127.023 139.107 127.343 138.8C127.677 138.48 128.09 138.32 128.583 138.32C129.077 138.32 129.483 138.48 129.803 138.8C130.137 139.107 130.303 139.493 130.303 139.96C130.303 140.427 130.137 140.82 129.803 141.14C129.483 141.447 129.077 141.6 128.583 141.6ZM129.963 142.92V154H127.163V142.92H129.963ZM138.87 142.76C140.19 142.76 141.256 143.18 142.07 144.02C142.883 144.847 143.29 146.007 143.29 147.5V154H140.49V147.88C140.49 147 140.27 146.327 139.83 145.86C139.39 145.38 138.79 145.14 138.03 145.14C137.256 145.14 136.643 145.38 136.19 145.86C135.75 146.327 135.53 147 135.53 147.88V154H132.73V142.92H135.53V144.3C135.903 143.82 136.376 143.447 136.95 143.18C137.536 142.9 138.176 142.76 138.87 142.76ZM153.518 139.2V154H150.718V139.2H153.518ZM157.704 141.6C157.211 141.6 156.798 141.447 156.464 141.14C156.144 140.82 155.984 140.427 155.984 139.96C155.984 139.493 156.144 139.107 156.464 138.8C156.798 138.48 157.211 138.32 157.704 138.32C158.198 138.32 158.604 138.48 158.924 138.8C159.258 139.107 159.424 139.493 159.424 139.96C159.424 140.427 159.258 140.82 158.924 141.14C158.604 141.447 158.198 141.6 157.704 141.6ZM159.084 142.92V154H156.284V142.92H159.084ZM164.651 144.54C165.011 144.007 165.504 143.573 166.131 143.24C166.771 142.907 167.497 142.74 168.311 142.74C169.257 142.74 170.111 142.973 170.871 143.44C171.644 143.907 172.251 144.573 172.691 145.44C173.144 146.293 173.371 147.287 173.371 148.42C173.371 149.553 173.144 150.56 172.691 151.44C172.251 152.307 171.644 152.98 170.871 153.46C170.111 153.94 169.257 154.18 168.311 154.18C167.484 154.18 166.757 154.02 166.131 153.7C165.517 153.367 165.024 152.94 164.651 152.42V154H161.851V139.2H164.651V144.54ZM170.511 148.42C170.511 147.753 170.371 147.18 170.091 146.7C169.824 146.207 169.464 145.833 169.011 145.58C168.571 145.327 168.091 145.2 167.571 145.2C167.064 145.2 166.584 145.333 166.131 145.6C165.691 145.853 165.331 146.227 165.051 146.72C164.784 147.213 164.651 147.793 164.651 148.46C164.651 149.127 164.784 149.707 165.051 150.2C165.331 150.693 165.691 151.073 166.131 151.34C166.584 151.593 167.064 151.72 167.571 151.72C168.091 151.72 168.571 151.587 169.011 151.32C169.464 151.053 169.824 150.673 170.091 150.18C170.371 149.687 170.511 149.1 170.511 148.42ZM178.205 144.64C178.565 144.053 179.032 143.593 179.605 143.26C180.192 142.927 180.859 142.76 181.605 142.76V145.7H180.865C179.985 145.7 179.319 145.907 178.865 146.32C178.425 146.733 178.205 147.453 178.205 148.48V154H175.405V142.92H178.205V144.64ZM182.771 148.42C182.771 147.3 182.991 146.307 183.431 145.44C183.885 144.573 184.491 143.907 185.251 143.44C186.025 142.973 186.885 142.74 187.831 142.74C188.658 142.74 189.378 142.907 189.991 143.24C190.618 143.573 191.118 143.993 191.491 144.5V142.92H194.311V154H191.491V152.38C191.131 152.9 190.631 153.333 189.991 153.68C189.365 154.013 188.638 154.18 187.811 154.18C186.878 154.18 186.025 153.94 185.251 153.46C184.491 152.98 183.885 152.307 183.431 151.44C182.991 150.56 182.771 149.553 182.771 148.42ZM191.491 148.46C191.491 147.78 191.358 147.2 191.091 146.72C190.825 146.227 190.465 145.853 190.011 145.6C189.558 145.333 189.071 145.2 188.551 145.2C188.031 145.2 187.551 145.327 187.111 145.58C186.671 145.833 186.311 146.207 186.031 146.7C185.765 147.18 185.631 147.753 185.631 148.42C185.631 149.087 185.765 149.673 186.031 150.18C186.311 150.673 186.671 151.053 187.111 151.32C187.565 151.587 188.045 151.72 188.551 151.72C189.071 151.72 189.558 151.593 190.011 151.34C190.465 151.073 190.825 150.7 191.091 150.22C191.358 149.727 191.491 149.14 191.491 148.46ZM199.846 144.64C200.206 144.053 200.673 143.593 201.246 143.26C201.833 142.927 202.499 142.76 203.246 142.76V145.7H202.506C201.626 145.7 200.959 145.907 200.506 146.32C200.066 146.733 199.846 147.453 199.846 148.48V154H197.046V142.92H199.846V144.64ZM215.732 142.92L208.872 159.24H205.892L208.292 153.72L203.852 142.92H206.992L209.852 150.66L212.752 142.92H215.732ZM44.4427 165.74C45.2693 165.74 45.996 165.907 46.6227 166.24C47.2493 166.56 47.7427 166.98 48.1027 167.5V165.92H50.9227V177.08C50.9227 178.107 50.716 179.02 50.3027 179.82C49.8893 180.633 49.2693 181.273 48.4427 181.74C47.616 182.22 46.616 182.46 45.4427 182.46C43.8693 182.46 42.576 182.093 41.5627 181.36C40.5627 180.627 39.996 179.627 39.8627 178.36H42.6427C42.7893 178.867 43.1027 179.267 43.5827 179.56C44.076 179.867 44.6693 180.02 45.3627 180.02C46.176 180.02 46.836 179.773 47.3427 179.28C47.8493 178.8 48.1027 178.067 48.1027 177.08V175.36C47.7427 175.88 47.2427 176.313 46.6027 176.66C45.976 177.007 45.256 177.18 44.4427 177.18C43.5093 177.18 42.656 176.94 41.8827 176.46C41.1093 175.98 40.496 175.307 40.0427 174.44C39.6027 173.56 39.3827 172.553 39.3827 171.42C39.3827 170.3 39.6027 169.307 40.0427 168.44C40.496 167.573 41.1027 166.907 41.8627 166.44C42.636 165.973 43.496 165.74 44.4427 165.74ZM48.1027 171.46C48.1027 170.78 47.9693 170.2 47.7027 169.72C47.436 169.227 47.076 168.853 46.6227 168.6C46.1693 168.333 45.6827 168.2 45.1627 168.2C44.6427 168.2 44.1627 168.327 43.7227 168.58C43.2827 168.833 42.9227 169.207 42.6427 169.7C42.376 170.18 42.2427 170.753 42.2427 171.42C42.2427 172.087 42.376 172.673 42.6427 173.18C42.9227 173.673 43.2827 174.053 43.7227 174.32C44.176 174.587 44.656 174.72 45.1627 174.72C45.6827 174.72 46.1693 174.593 46.6227 174.34C47.076 174.073 47.436 173.7 47.7027 173.22C47.9693 172.727 48.1027 172.14 48.1027 171.46ZM58.5773 177.18C57.5107 177.18 56.5507 176.947 55.6973 176.48C54.844 176 54.1707 175.327 53.6773 174.46C53.1973 173.593 52.9573 172.593 52.9573 171.46C52.9573 170.327 53.204 169.327 53.6973 168.46C54.204 167.593 54.8907 166.927 55.7573 166.46C56.624 165.98 57.5907 165.74 58.6573 165.74C59.724 165.74 60.6907 165.98 61.5573 166.46C62.424 166.927 63.104 167.593 63.5973 168.46C64.104 169.327 64.3573 170.327 64.3573 171.46C64.3573 172.593 64.0973 173.593 63.5773 174.46C63.0707 175.327 62.3773 176 61.4973 176.48C60.6307 176.947 59.6573 177.18 58.5773 177.18ZM58.5773 174.74C59.084 174.74 59.5573 174.62 59.9973 174.38C60.4507 174.127 60.8107 173.753 61.0773 173.26C61.344 172.767 61.4773 172.167 61.4773 171.46C61.4773 170.407 61.1973 169.6 60.6373 169.04C60.0907 168.467 59.4173 168.18 58.6173 168.18C57.8173 168.18 57.144 168.467 56.5973 169.04C56.064 169.6 55.7973 170.407 55.7973 171.46C55.7973 172.513 56.0573 173.327 56.5773 173.9C57.1107 174.46 57.7773 174.74 58.5773 174.74ZM74.4369 168.22V173.58C74.4369 173.953 74.5235 174.227 74.6969 174.4C74.8835 174.56 75.1902 174.64 75.6169 174.64H76.9169V177H75.1569C72.7969 177 71.6169 175.853 71.6169 173.56V168.22H70.2969V165.92H71.6169V163.18H74.4369V165.92H76.9169V168.22H74.4369ZM83.8508 177.18C82.7841 177.18 81.8241 176.947 80.9708 176.48C80.1174 176 79.4441 175.327 78.9508 174.46C78.4708 173.593 78.2308 172.593 78.2308 171.46C78.2308 170.327 78.4774 169.327 78.9708 168.46C79.4774 167.593 80.1641 166.927 81.0308 166.46C81.8974 165.98 82.8641 165.74 83.9308 165.74C84.9974 165.74 85.9641 165.98 86.8308 166.46C87.6974 166.927 88.3774 167.593 88.8708 168.46C89.3774 169.327 89.6308 170.327 89.6308 171.46C89.6308 172.593 89.3708 173.593 88.8508 174.46C88.3441 175.327 87.6508 176 86.7708 176.48C85.9041 176.947 84.9308 177.18 83.8508 177.18ZM83.8508 174.74C84.3574 174.74 84.8308 174.62 85.2708 174.38C85.7241 174.127 86.0841 173.753 86.3508 173.26C86.6174 172.767 86.7508 172.167 86.7508 171.46C86.7508 170.407 86.4708 169.6 85.9108 169.04C85.3641 168.467 84.6908 168.18 83.8908 168.18C83.0908 168.18 82.4174 168.467 81.8708 169.04C81.3374 169.6 81.0708 170.407 81.0708 171.46C81.0708 172.513 81.3308 173.327 81.8508 173.9C82.3841 174.46 83.0508 174.74 83.8508 174.74Z" fill="#CBC9CF"/>
<path d="M95.7303 171.42C95.7303 170.3 95.9503 169.307 96.3903 168.44C96.8436 167.573 97.457 166.907 98.2303 166.44C99.0036 165.973 99.8636 165.74 100.81 165.74C101.53 165.74 102.217 165.9 102.87 166.22C103.524 166.527 104.044 166.94 104.43 167.46V162.2H107.27V177H104.43V175.36C104.084 175.907 103.597 176.347 102.97 176.68C102.344 177.013 101.617 177.18 100.79 177.18C99.857 177.18 99.0036 176.94 98.2303 176.46C97.457 175.98 96.8436 175.307 96.3903 174.44C95.9503 173.56 95.7303 172.553 95.7303 171.42ZM104.45 171.46C104.45 170.78 104.317 170.2 104.05 169.72C103.784 169.227 103.424 168.853 102.97 168.6C102.517 168.333 102.03 168.2 101.51 168.2C100.99 168.2 100.51 168.327 100.07 168.58C99.6303 168.833 99.2703 169.207 98.9903 169.7C98.7236 170.18 98.5903 170.753 98.5903 171.42C98.5903 172.087 98.7236 172.673 98.9903 173.18C99.2703 173.673 99.6303 174.053 100.07 174.32C100.524 174.587 101.004 174.72 101.51 174.72C102.03 174.72 102.517 174.593 102.97 174.34C103.424 174.073 103.784 173.7 104.05 173.22C104.317 172.727 104.45 172.14 104.45 171.46ZM111.425 164.6C110.932 164.6 110.518 164.447 110.185 164.14C109.865 163.82 109.705 163.427 109.705 162.96C109.705 162.493 109.865 162.107 110.185 161.8C110.518 161.48 110.932 161.32 111.425 161.32C111.918 161.32 112.325 161.48 112.645 161.8C112.978 162.107 113.145 162.493 113.145 162.96C113.145 163.427 112.978 163.82 112.645 164.14C112.325 164.447 111.918 164.6 111.425 164.6ZM112.805 165.92V177H110.005V165.92H112.805ZM119.811 177.18C118.905 177.18 118.091 177.02 117.371 176.7C116.651 176.367 116.078 175.92 115.651 175.36C115.238 174.8 115.011 174.18 114.971 173.5H117.791C117.845 173.927 118.051 174.28 118.411 174.56C118.785 174.84 119.245 174.98 119.791 174.98C120.325 174.98 120.738 174.873 121.031 174.66C121.338 174.447 121.491 174.173 121.491 173.84C121.491 173.48 121.305 173.213 120.931 173.04C120.571 172.853 119.991 172.653 119.191 172.44C118.365 172.24 117.685 172.033 117.151 171.82C116.631 171.607 116.178 171.28 115.791 170.84C115.418 170.4 115.231 169.807 115.231 169.06C115.231 168.447 115.405 167.887 115.751 167.38C116.111 166.873 116.618 166.473 117.271 166.18C117.938 165.887 118.718 165.74 119.611 165.74C120.931 165.74 121.985 166.073 122.771 166.74C123.558 167.393 123.991 168.28 124.071 169.4H121.391C121.351 168.96 121.165 168.613 120.831 168.36C120.511 168.093 120.078 167.96 119.531 167.96C119.025 167.96 118.631 168.053 118.351 168.24C118.085 168.427 117.951 168.687 117.951 169.02C117.951 169.393 118.138 169.68 118.511 169.88C118.885 170.067 119.465 170.26 120.251 170.46C121.051 170.66 121.711 170.867 122.231 171.08C122.751 171.293 123.198 171.627 123.571 172.08C123.958 172.52 124.158 173.107 124.171 173.84C124.171 174.48 123.991 175.053 123.631 175.56C123.285 176.067 122.778 176.467 122.111 176.76C121.458 177.04 120.691 177.18 119.811 177.18ZM125.75 171.46C125.75 170.313 125.983 169.313 126.45 168.46C126.917 167.593 127.563 166.927 128.39 166.46C129.217 165.98 130.163 165.74 131.23 165.74C132.603 165.74 133.737 166.087 134.63 166.78C135.537 167.46 136.143 168.42 136.45 169.66H133.43C133.27 169.18 132.997 168.807 132.61 168.54C132.237 168.26 131.77 168.12 131.21 168.12C130.41 168.12 129.777 168.413 129.31 169C128.843 169.573 128.61 170.393 128.61 171.46C128.61 172.513 128.843 173.333 129.31 173.92C129.777 174.493 130.41 174.78 131.21 174.78C132.343 174.78 133.083 174.273 133.43 173.26H136.45C136.143 174.46 135.537 175.413 134.63 176.12C133.723 176.827 132.59 177.18 131.23 177.18C130.163 177.18 129.217 176.947 128.39 176.48C127.563 176 126.917 175.333 126.45 174.48C125.983 173.613 125.75 172.607 125.75 171.46ZM143.421 177.18C142.354 177.18 141.394 176.947 140.541 176.48C139.688 176 139.014 175.327 138.521 174.46C138.041 173.593 137.801 172.593 137.801 171.46C137.801 170.327 138.048 169.327 138.541 168.46C139.048 167.593 139.734 166.927 140.601 166.46C141.468 165.98 142.434 165.74 143.501 165.74C144.568 165.74 145.534 165.98 146.401 166.46C147.268 166.927 147.948 167.593 148.441 168.46C148.948 169.327 149.201 170.327 149.201 171.46C149.201 172.593 148.941 173.593 148.421 174.46C147.914 175.327 147.221 176 146.341 176.48C145.474 176.947 144.501 177.18 143.421 177.18ZM143.421 174.74C143.928 174.74 144.401 174.62 144.841 174.38C145.294 174.127 145.654 173.753 145.921 173.26C146.188 172.767 146.321 172.167 146.321 171.46C146.321 170.407 146.041 169.6 145.481 169.04C144.934 168.467 144.261 168.18 143.461 168.18C142.661 168.18 141.988 168.467 141.441 169.04C140.908 169.6 140.641 170.407 140.641 171.46C140.641 172.513 140.901 173.327 141.421 173.9C141.954 174.46 142.621 174.74 143.421 174.74ZM155.875 174.42L158.675 165.92H161.655L157.555 177H154.155L150.075 165.92H153.075L155.875 174.42ZM173.528 171.22C173.528 171.62 173.501 171.98 173.448 172.3H165.348C165.414 173.1 165.694 173.727 166.188 174.18C166.681 174.633 167.288 174.86 168.008 174.86C169.048 174.86 169.788 174.413 170.228 173.52H173.248C172.928 174.587 172.314 175.467 171.408 176.16C170.501 176.84 169.388 177.18 168.068 177.18C167.001 177.18 166.041 176.947 165.188 176.48C164.348 176 163.688 175.327 163.208 174.46C162.741 173.593 162.508 172.593 162.508 171.46C162.508 170.313 162.741 169.307 163.208 168.44C163.674 167.573 164.328 166.907 165.168 166.44C166.008 165.973 166.974 165.74 168.068 165.74C169.121 165.74 170.061 165.967 170.888 166.42C171.728 166.873 172.374 167.52 172.828 168.36C173.294 169.187 173.528 170.14 173.528 171.22ZM170.628 170.42C170.614 169.7 170.354 169.127 169.848 168.7C169.341 168.26 168.721 168.04 167.988 168.04C167.294 168.04 166.708 168.253 166.228 168.68C165.761 169.093 165.474 169.673 165.368 170.42H170.628ZM178.371 167.64C178.731 167.053 179.198 166.593 179.771 166.26C180.358 165.927 181.025 165.76 181.771 165.76V168.7H181.031C180.151 168.7 179.485 168.907 179.031 169.32C178.591 169.733 178.371 170.453 178.371 171.48V177H175.571V165.92H178.371V167.64Z" fill="#32576E"/>
<defs>
<clipPath id="clip0_9_84">
<rect width="116" height="116" fill="white" transform="translate(49)"/>
</clipPath>
</defs>
</svg>
