<svg width="116" height="116" viewBox="0 0 116 116" fill="none" xmlns="http://www.w3.org/2000/svg">
<g clip-path="url(#clip0_9_81)">
<path d="M58 -17.4C15.9916 -17.4 -18.0444 16.636 -18.0444 58.6444C-18.0444 100.653 15.9916 134.689 58 134.689C100.008 134.689 134.044 100.653 134.044 58.6444C134.044 16.636 100.008 -17.4 58 -17.4ZM82.5305 34.114C87.9578 34.114 92.3427 38.4988 92.3427 43.9262C92.3427 49.3535 87.9578 53.7384 82.5305 53.7384C77.1031 53.7384 72.7183 49.3535 72.7183 43.9262C72.7183 38.4988 77.1031 34.114 82.5305 34.114ZM28.5634 107.705C20.4377 107.705 13.8452 101.266 13.8452 93.2937C13.8452 87.1611 22.5842 74.7732 26.601 69.4379C27.5822 68.1193 29.5447 68.1193 30.5259 69.4379C34.5428 74.7732 43.2817 87.1611 43.2817 93.2937C43.2817 101.266 36.6892 107.705 28.5634 107.705ZM33.4695 53.7384C28.0422 53.7384 23.6574 49.3535 23.6574 43.9262C23.6574 38.4988 28.0422 34.114 33.4695 34.114C38.8969 34.114 43.2817 38.4988 43.2817 43.9262C43.2817 49.3535 38.8969 53.7384 33.4695 53.7384ZM85.6581 101.021C78.7896 92.8031 68.7014 88.081 58 88.081C51.4994 88.081 51.4994 78.2688 58 78.2688C71.6144 78.2688 84.4622 84.2788 93.1706 94.7656C97.4021 99.7943 89.7363 105.958 85.6581 101.021Z" fill="#CBC9CF" fill-opacity="0.3"/>
</g>
<defs>
<clipPath id="clip0_9_81">
<rect width="116" height="116" fill="white"/>
</clipPath>
</defs>
</svg>
